<svg id="visual" viewBox="0 0 675 900" width="675" height="900" xmlns="http://www.w3.org/2000/svg" xmlns:xlink="http://www.w3.org/1999/xlink" version="1.1"><g stroke-width="1" stroke-linejoin="bevel"><path d="M358.7 426L360.7 380L258.3 422Z" fill="#477443" stroke="#477443"></path><path d="M360.7 380L260.3 358L258.3 422Z" fill="#51552a" stroke="#51552a"></path><path d="M207.9 377L219.9 452L258.3 422Z" fill="#009473" stroke="#009473"></path><path d="M258.3 422L259.3 512L358.7 426Z" fill="#4f6434" stroke="#4f6434"></path><path d="M260.3 358L207.9 377L258.3 422Z" fill="#4e4624" stroke="#4e4624"></path><path d="M219.9 452L259.3 512L258.3 422Z" fill="#3d2c1e" stroke="#3d2c1e"></path><path d="M360.7 380L299.3 271L260.3 358Z" fill="#4e4624" stroke="#4e4624"></path><path d="M260.3 358L174.9 296L207.9 377Z" fill="#31221c" stroke="#31221c"></path><path d="M469.1 367L392.7 288L360.7 380Z" fill="#31221c" stroke="#31221c"></path><path d="M360.7 380L392.7 288L299.3 271Z" fill="#51552a" stroke="#51552a"></path><path d="M259.3 512L362.7 531L358.7 426Z" fill="#3d2c1e" stroke="#3d2c1e"></path><path d="M358.7 426L469.1 367L360.7 380Z" fill="#4f6434" stroke="#4f6434"></path><path d="M471.1 475L469.1 367L358.7 426Z" fill="#473821" stroke="#473821"></path><path d="M299.3 271L174.9 296L260.3 358Z" fill="#473821" stroke="#473821"></path><path d="M86.4 421L186.9 520L219.9 452Z" fill="#4f6434" stroke="#4f6434"></path><path d="M219.9 452L186.9 520L259.3 512Z" fill="#31221c" stroke="#31221c"></path><path d="M259.3 512L283.3 642L362.7 531Z" fill="#4e4624" stroke="#4e4624"></path><path d="M86.4 421L219.9 452L207.9 377Z" fill="#4e4624" stroke="#4e4624"></path><path d="M362.7 531L471.1 475L358.7 426Z" fill="#51552a" stroke="#51552a"></path><path d="M362.7 531L490.1 510L471.1 475Z" fill="#477443" stroke="#477443"></path><path d="M602.6 333L514.1 302L469.1 367Z" fill="#3d2c1e" stroke="#3d2c1e"></path><path d="M68.4 371L86.4 421L207.9 377Z" fill="#009473" stroke="#009473"></path><path d="M588.6 433L469.1 367L471.1 475Z" fill="#121010" stroke="#121010"></path><path d="M469.1 367L514.1 302L392.7 288Z" fill="#473821" stroke="#473821"></path><path d="M392.7 288L353.7 165L299.3 271Z" fill="#009473" stroke="#009473"></path><path d="M190.9 166L102.4 292L174.9 296Z" fill="#473821" stroke="#473821"></path><path d="M174.9 296L68.4 371L207.9 377Z" fill="#51552a" stroke="#51552a"></path><path d="M476.1 194L353.7 165L392.7 288Z" fill="#4f6434" stroke="#4f6434"></path><path d="M299.3 271L190.9 166L174.9 296Z" fill="#4f6434" stroke="#4f6434"></path><path d="M209.9 638L259.3 512L186.9 520Z" fill="#4f6434" stroke="#4f6434"></path><path d="M209.9 638L283.3 642L259.3 512Z" fill="#3d2c1e" stroke="#3d2c1e"></path><path d="M362.7 531L465.1 632L490.1 510Z" fill="#121010" stroke="#121010"></path><path d="M102.4 292L68.4 371L174.9 296Z" fill="#009473" stroke="#009473"></path><path d="M353.7 165L270.3 158L299.3 271Z" fill="#31221c" stroke="#31221c"></path><path d="M283.3 642L374.7 646L362.7 531Z" fill="#31221c" stroke="#31221c"></path><path d="M128.4 615L209.9 638L186.9 520Z" fill="#4e4624" stroke="#4e4624"></path><path d="M86.4 421L103.4 559L186.9 520Z" fill="#51552a" stroke="#51552a"></path><path d="M0 534L103.4 559L86.4 421Z" fill="#4f6434" stroke="#4f6434"></path><path d="M270.3 158L190.9 166L299.3 271Z" fill="#473821" stroke="#473821"></path><path d="M514.1 302L476.1 194L392.7 288Z" fill="#378458" stroke="#378458"></path><path d="M374.7 646L465.1 632L362.7 531Z" fill="#221917" stroke="#221917"></path><path d="M103.4 559L128.4 615L186.9 520Z" fill="#009473" stroke="#009473"></path><path d="M597.6 534L588.6 433L490.1 510Z" fill="#473821" stroke="#473821"></path><path d="M490.1 510L588.6 433L471.1 475Z" fill="#378458" stroke="#378458"></path><path d="M514.1 302L549.6 243L476.1 194Z" fill="#121010" stroke="#121010"></path><path d="M602.6 333L549.6 243L514.1 302Z" fill="#51552a" stroke="#51552a"></path><path d="M353.7 165L265.3 114L270.3 158Z" fill="#31221c" stroke="#31221c"></path><path d="M270.3 158L265.3 114L190.9 166Z" fill="#221917" stroke="#221917"></path><path d="M414.7 102L265.3 114L353.7 165Z" fill="#4e4624" stroke="#4e4624"></path><path d="M273.3 705L369.7 695L283.3 642Z" fill="#378458" stroke="#378458"></path><path d="M283.3 642L369.7 695L374.7 646Z" fill="#31221c" stroke="#31221c"></path><path d="M374.7 646L464.1 702L465.1 632Z" fill="#221917" stroke="#221917"></path><path d="M273.3 705L283.3 642L219.9 695Z" fill="#4e4624" stroke="#4e4624"></path><path d="M588.6 433L602.6 333L469.1 367Z" fill="#3d2c1e" stroke="#3d2c1e"></path><path d="M219.9 695L283.3 642L209.9 638Z" fill="#121010" stroke="#121010"></path><path d="M128.4 615L219.9 695L209.9 638Z" fill="#121010" stroke="#121010"></path><path d="M0 342L0 430L68.4 371Z" fill="#3d2c1e" stroke="#3d2c1e"></path><path d="M68.4 371L0 430L86.4 421Z" fill="#3d2c1e" stroke="#3d2c1e"></path><path d="M0 631L85.4 693L128.4 615Z" fill="#51552a" stroke="#51552a"></path><path d="M0 342L68.4 371L102.4 292Z" fill="#121010" stroke="#121010"></path><path d="M549.6 243L554.6 207L476.1 194Z" fill="#477443" stroke="#477443"></path><path d="M476.1 194L414.7 102L353.7 165Z" fill="#378458" stroke="#378458"></path><path d="M675 286L554.6 207L549.6 243Z" fill="#4f6434" stroke="#4f6434"></path><path d="M0 251L0 342L102.4 292Z" fill="#121010" stroke="#121010"></path><path d="M465.1 110L414.7 102L476.1 194Z" fill="#221917" stroke="#221917"></path><path d="M585.6 598L597.6 534L490.1 510Z" fill="#3d2c1e" stroke="#3d2c1e"></path><path d="M588.6 433L675 419L602.6 333Z" fill="#3d2c1e" stroke="#3d2c1e"></path><path d="M554.6 207L465.1 110L476.1 194Z" fill="#378458" stroke="#378458"></path><path d="M100.4 122L64.4 172L190.9 166Z" fill="#378458" stroke="#378458"></path><path d="M190.9 166L64.4 172L102.4 292Z" fill="#31221c" stroke="#31221c"></path><path d="M0 430L0 534L86.4 421Z" fill="#378458" stroke="#378458"></path><path d="M128.4 615L85.4 693L219.9 695Z" fill="#477443" stroke="#477443"></path><path d="M265.3 114L209.9 78L190.9 166Z" fill="#378458" stroke="#378458"></path><path d="M317.3 0L209.9 78L265.3 114Z" fill="#221917" stroke="#221917"></path><path d="M369.7 695L464.1 702L374.7 646Z" fill="#473821" stroke="#473821"></path><path d="M465.1 632L585.6 598L490.1 510Z" fill="#121010" stroke="#121010"></path><path d="M389.7 782L464.1 702L369.7 695Z" fill="#51552a" stroke="#51552a"></path><path d="M464.1 702L585.6 598L465.1 632Z" fill="#51552a" stroke="#51552a"></path><path d="M64.4 172L0 251L102.4 292Z" fill="#51552a" stroke="#51552a"></path><path d="M209.9 78L100.4 122L190.9 166Z" fill="#31221c" stroke="#31221c"></path><path d="M64.4 172L0 200L0 251Z" fill="#221917" stroke="#221917"></path><path d="M675 526L588.6 433L597.6 534Z" fill="#477443" stroke="#477443"></path><path d="M675 526L675 419L588.6 433Z" fill="#4f6434" stroke="#4f6434"></path><path d="M602.6 333L675 286L549.6 243Z" fill="#477443" stroke="#477443"></path><path d="M0 631L128.4 615L103.4 559Z" fill="#378458" stroke="#378458"></path><path d="M261.3 802L389.7 782L273.3 705Z" fill="#221917" stroke="#221917"></path><path d="M0 105L0 200L64.4 172Z" fill="#31221c" stroke="#31221c"></path><path d="M675 419L675 336L602.6 333Z" fill="#121010" stroke="#121010"></path><path d="M554.6 207L583.6 102L465.1 110Z" fill="#3d2c1e" stroke="#3d2c1e"></path><path d="M675 336L675 286L602.6 333Z" fill="#221917" stroke="#221917"></path><path d="M0 534L0 631L103.4 559Z" fill="#3d2c1e" stroke="#3d2c1e"></path><path d="M585.6 598L675 526L597.6 534Z" fill="#4e4624" stroke="#4e4624"></path><path d="M675 662L675 526L585.6 598Z" fill="#121010" stroke="#121010"></path><path d="M261.3 802L273.3 705L219.9 695Z" fill="#221917" stroke="#221917"></path><path d="M273.3 705L389.7 782L369.7 695Z" fill="#473821" stroke="#473821"></path><path d="M464.1 702L577.6 748L585.6 598Z" fill="#51552a" stroke="#51552a"></path><path d="M360.7 0L317.3 0L414.7 102Z" fill="#3d2c1e" stroke="#3d2c1e"></path><path d="M414.7 102L317.3 0L265.3 114Z" fill="#3d2c1e" stroke="#3d2c1e"></path><path d="M209.9 78L74.4 0L100.4 122Z" fill="#009473" stroke="#009473"></path><path d="M188.9 840L261.3 802L219.9 695Z" fill="#009473" stroke="#009473"></path><path d="M514.1 0L360.7 0L414.7 102Z" fill="#31221c" stroke="#31221c"></path><path d="M514.1 0L414.7 102L465.1 110Z" fill="#473821" stroke="#473821"></path><path d="M675 169L583.6 102L554.6 207Z" fill="#4f6434" stroke="#4f6434"></path><path d="M317.3 0L202.9 0L209.9 78Z" fill="#31221c" stroke="#31221c"></path><path d="M100.4 122L0 105L64.4 172Z" fill="#009473" stroke="#009473"></path><path d="M74.4 0L0 105L100.4 122Z" fill="#4f6434" stroke="#4f6434"></path><path d="M675 286L675 169L554.6 207Z" fill="#4e4624" stroke="#4e4624"></path><path d="M470.1 812L577.6 748L464.1 702Z" fill="#473821" stroke="#473821"></path><path d="M389.7 782L470.1 812L464.1 702Z" fill="#009473" stroke="#009473"></path><path d="M415.7 900L470.1 812L389.7 782Z" fill="#4f6434" stroke="#4f6434"></path><path d="M577.6 748L675 662L585.6 598Z" fill="#473821" stroke="#473821"></path><path d="M557.6 0L514.1 0L583.6 102Z" fill="#4e4624" stroke="#4e4624"></path><path d="M583.6 102L514.1 0L465.1 110Z" fill="#51552a" stroke="#51552a"></path><path d="M76.4 809L188.9 840L85.4 693Z" fill="#121010" stroke="#121010"></path><path d="M85.4 693L188.9 840L219.9 695Z" fill="#473821" stroke="#473821"></path><path d="M261.3 802L306.3 900L389.7 782Z" fill="#378458" stroke="#378458"></path><path d="M0 631L0 745L85.4 693Z" fill="#477443" stroke="#477443"></path><path d="M202.9 0L74.4 0L209.9 78Z" fill="#221917" stroke="#221917"></path><path d="M675 818L675 694L577.6 748Z" fill="#473821" stroke="#473821"></path><path d="M577.6 748L675 694L675 662Z" fill="#3d2c1e" stroke="#3d2c1e"></path><path d="M0 745L76.4 809L85.4 693Z" fill="#4f6434" stroke="#4f6434"></path><path d="M675 72L557.6 0L583.6 102Z" fill="#477443" stroke="#477443"></path><path d="M675 169L675 72L583.6 102Z" fill="#31221c" stroke="#31221c"></path><path d="M0 745L0 792L76.4 809Z" fill="#221917" stroke="#221917"></path><path d="M172.9 900L306.3 900L188.9 840Z" fill="#009473" stroke="#009473"></path><path d="M172.9 900L188.9 840L76.4 809Z" fill="#378458" stroke="#378458"></path><path d="M188.9 840L306.3 900L261.3 802Z" fill="#4e4624" stroke="#4e4624"></path><path d="M74.4 0L0 0L0 105Z" fill="#4f6434" stroke="#4f6434"></path><path d="M306.3 900L415.7 900L389.7 782Z" fill="#3d2c1e" stroke="#3d2c1e"></path><path d="M470.1 812L609.6 821L577.6 748Z" fill="#3d2c1e" stroke="#3d2c1e"></path><path d="M487.1 900L609.6 821L470.1 812Z" fill="#473821" stroke="#473821"></path><path d="M65.4 900L172.9 900L76.4 809Z" fill="#378458" stroke="#378458"></path><path d="M415.7 900L487.1 900L470.1 812Z" fill="#121010" stroke="#121010"></path><path d="M675 72L675 0L557.6 0Z" fill="#4f6434" stroke="#4f6434"></path><path d="M675 900L675 818L609.6 821Z" fill="#51552a" stroke="#51552a"></path><path d="M609.6 821L675 818L577.6 748Z" fill="#31221c" stroke="#31221c"></path><path d="M0 900L65.4 900L76.4 809Z" fill="#378458" stroke="#378458"></path><path d="M487.1 900L594.6 900L609.6 821Z" fill="#4f6434" stroke="#4f6434"></path><path d="M0 792L0 900L76.4 809Z" fill="#4e4624" stroke="#4e4624"></path><path d="M594.6 900L675 900L609.6 821Z" fill="#121010" stroke="#121010"></path></g></svg>