<svg id="visual" viewBox="0 0 675 900" width="675" height="900" xmlns="http://www.w3.org/2000/svg" xmlns:xlink="http://www.w3.org/1999/xlink" version="1.1"><g stroke-width="1" stroke-linejoin="bevel"><path d="M309.3 431L408.7 378L293.3 345Z" fill="#d07f00" stroke="#d07f00"></path><path d="M309.3 431L414.7 422L408.7 378Z" fill="#d07f00" stroke="#d07f00"></path><path d="M408.7 378L378.7 278L293.3 345Z" fill="#cd6b07" stroke="#cd6b07"></path><path d="M378.7 278L301.3 274L293.3 345Z" fill="#cfba16" stroke="#cfba16"></path><path d="M414.7 422L468.1 349L408.7 378Z" fill="#d1a602" stroke="#d1a602"></path><path d="M408.7 378L453.1 296L378.7 278Z" fill="#cd6b07" stroke="#cd6b07"></path><path d="M468.1 349L453.1 296L408.7 378Z" fill="#cfba16" stroke="#cfba16"></path><path d="M301.3 274L183.9 354L293.3 345Z" fill="#cfba16" stroke="#cfba16"></path><path d="M293.3 345L183.9 354L309.3 431Z" fill="#c14219" stroke="#c14219"></path><path d="M304.3 542L389.7 539L309.3 431Z" fill="#b8291f" stroke="#b8291f"></path><path d="M309.3 431L389.7 539L414.7 422Z" fill="#b8291f" stroke="#b8291f"></path><path d="M414.7 422L513.1 451L468.1 349Z" fill="#d07f00" stroke="#d07f00"></path><path d="M174.9 464L304.3 542L309.3 431Z" fill="#d29300" stroke="#d29300"></path><path d="M389.7 539L513.1 451L414.7 422Z" fill="#cd6b07" stroke="#cd6b07"></path><path d="M468.1 349L564.6 360L453.1 296Z" fill="#d07f00" stroke="#d07f00"></path><path d="M183.9 354L174.9 464L309.3 431Z" fill="#d29300" stroke="#d29300"></path><path d="M453.1 296L388.7 193L378.7 278Z" fill="#b8291f" stroke="#b8291f"></path><path d="M378.7 278L388.7 193L301.3 274Z" fill="#cacd2b" stroke="#cacd2b"></path><path d="M301.3 274L164.9 277L183.9 354Z" fill="#cacd2b" stroke="#cacd2b"></path><path d="M388.7 193L300.3 183L301.3 274Z" fill="#cd6b07" stroke="#cd6b07"></path><path d="M189.9 202L164.9 277L301.3 274Z" fill="#cfba16" stroke="#cfba16"></path><path d="M183.9 354L109.4 376L174.9 464Z" fill="#cd6b07" stroke="#cd6b07"></path><path d="M513.1 451L564.6 360L468.1 349Z" fill="#cfba16" stroke="#cfba16"></path><path d="M501.1 148L398.7 112L388.7 193Z" fill="#ae0225" stroke="#ae0225"></path><path d="M174.9 464L169.9 522L304.3 542Z" fill="#c3e041" stroke="#c3e041"></path><path d="M100.4 531L169.9 522L174.9 464Z" fill="#c3e041" stroke="#c3e041"></path><path d="M551.6 542L568.6 425L513.1 451Z" fill="#c85711" stroke="#c85711"></path><path d="M513.1 451L568.6 425L564.6 360Z" fill="#d07f00" stroke="#d07f00"></path><path d="M164.9 277L109.4 376L183.9 354Z" fill="#cfba16" stroke="#cfba16"></path><path d="M300.3 183L189.9 202L301.3 274Z" fill="#cd6b07" stroke="#cd6b07"></path><path d="M164.9 277L124.4 248L109.4 376Z" fill="#d1a602" stroke="#d1a602"></path><path d="M491.1 603L494.1 570L389.7 539Z" fill="#d07f00" stroke="#d07f00"></path><path d="M389.7 539L494.1 570L513.1 451Z" fill="#d1a602" stroke="#d1a602"></path><path d="M169.9 522L271.3 610L304.3 542Z" fill="#c85711" stroke="#c85711"></path><path d="M304.3 542L271.3 610L389.7 539Z" fill="#c3e041" stroke="#c3e041"></path><path d="M189.9 202L124.4 248L164.9 277Z" fill="#d1a602" stroke="#d1a602"></path><path d="M494.1 570L551.6 542L513.1 451Z" fill="#d1a602" stroke="#d1a602"></path><path d="M0 327L84.4 422L109.4 376Z" fill="#cfba16" stroke="#cfba16"></path><path d="M109.4 376L84.4 422L174.9 464Z" fill="#d07f00" stroke="#d07f00"></path><path d="M417.7 657L491.1 603L389.7 539Z" fill="#cacd2b" stroke="#cacd2b"></path><path d="M494.1 570L569.6 608L551.6 542Z" fill="#cacd2b" stroke="#cacd2b"></path><path d="M388.7 193L398.7 112L300.3 183Z" fill="#cacd2b" stroke="#cacd2b"></path><path d="M300.3 183L273.3 89L189.9 202Z" fill="#d1a602" stroke="#d1a602"></path><path d="M501.1 148L388.7 193L453.1 296Z" fill="#c14219" stroke="#c14219"></path><path d="M603.6 243L501.1 148L453.1 296Z" fill="#cd6b07" stroke="#cd6b07"></path><path d="M271.3 610L417.7 657L389.7 539Z" fill="#c14219" stroke="#c14219"></path><path d="M84.4 422L100.4 531L174.9 464Z" fill="#b8291f" stroke="#b8291f"></path><path d="M169.9 522L213.9 647L271.3 610Z" fill="#c14219" stroke="#c14219"></path><path d="M675 357L603.6 243L564.6 360Z" fill="#d29300" stroke="#d29300"></path><path d="M564.6 360L603.6 243L453.1 296Z" fill="#cd6b07" stroke="#cd6b07"></path><path d="M675 357L564.6 360L568.6 425Z" fill="#ae0225" stroke="#ae0225"></path><path d="M89.4 648L213.9 647L169.9 522Z" fill="#ae0225" stroke="#ae0225"></path><path d="M271.3 610L357.7 748L417.7 657Z" fill="#cacd2b" stroke="#cacd2b"></path><path d="M398.7 112L273.3 89L300.3 183Z" fill="#c85711" stroke="#c85711"></path><path d="M189.9 202L120.4 152L124.4 248Z" fill="#c14219" stroke="#c14219"></path><path d="M491.1 603L569.6 608L494.1 570Z" fill="#cfba16" stroke="#cfba16"></path><path d="M675 444L675 357L568.6 425Z" fill="#ae0225" stroke="#ae0225"></path><path d="M488.1 702L569.6 608L491.1 603Z" fill="#cacd2b" stroke="#cacd2b"></path><path d="M216.9 77L120.4 152L189.9 202Z" fill="#c85711" stroke="#c85711"></path><path d="M0 300L0 327L109.4 376Z" fill="#d29300" stroke="#d29300"></path><path d="M603.6 243L595.6 177L501.1 148Z" fill="#cd6b07" stroke="#cd6b07"></path><path d="M501.1 148L486.1 87L398.7 112Z" fill="#cd6b07" stroke="#cd6b07"></path><path d="M571.6 74L486.1 87L501.1 148Z" fill="#cfba16" stroke="#cfba16"></path><path d="M398.7 112L317.3 0L273.3 89Z" fill="#cd6b07" stroke="#cd6b07"></path><path d="M273.3 89L216.9 77L189.9 202Z" fill="#cfba16" stroke="#cfba16"></path><path d="M206.9 0L216.9 77L273.3 89Z" fill="#cd6b07" stroke="#cd6b07"></path><path d="M675 444L568.6 425L675 518Z" fill="#cacd2b" stroke="#cacd2b"></path><path d="M603.6 243L675 160L595.6 177Z" fill="#cacd2b" stroke="#cacd2b"></path><path d="M675 518L568.6 425L551.6 542Z" fill="#ae0225" stroke="#ae0225"></path><path d="M216.9 77L122.4 111L120.4 152Z" fill="#ae0225" stroke="#ae0225"></path><path d="M0 300L109.4 376L124.4 248Z" fill="#cd6b07" stroke="#cd6b07"></path><path d="M0 300L124.4 248L0 168Z" fill="#cacd2b" stroke="#cacd2b"></path><path d="M84.4 422L0 446L100.4 531Z" fill="#c14219" stroke="#c14219"></path><path d="M675 357L675 260L603.6 243Z" fill="#d1a602" stroke="#d1a602"></path><path d="M0 327L0 446L84.4 422Z" fill="#cfba16" stroke="#cfba16"></path><path d="M100.4 531L89.4 648L169.9 522Z" fill="#d1a602" stroke="#d1a602"></path><path d="M417.7 657L488.1 702L491.1 603Z" fill="#cacd2b" stroke="#cacd2b"></path><path d="M357.7 748L488.1 702L417.7 657Z" fill="#b8291f" stroke="#b8291f"></path><path d="M0 168L124.4 248L120.4 152Z" fill="#cfba16" stroke="#cfba16"></path><path d="M569.6 608L675 518L551.6 542Z" fill="#d1a602" stroke="#d1a602"></path><path d="M675 622L675 518L569.6 608Z" fill="#c3e041" stroke="#c3e041"></path><path d="M198.9 744L297.3 744L213.9 647Z" fill="#cfba16" stroke="#cfba16"></path><path d="M213.9 647L297.3 744L271.3 610Z" fill="#c85711" stroke="#c85711"></path><path d="M297.3 744L357.7 748L271.3 610Z" fill="#ae0225" stroke="#ae0225"></path><path d="M0 606L89.4 648L100.4 531Z" fill="#d1a602" stroke="#d1a602"></path><path d="M0 446L0 537L100.4 531Z" fill="#ae0225" stroke="#ae0225"></path><path d="M595.6 177L571.6 74L501.1 148Z" fill="#ae0225" stroke="#ae0225"></path><path d="M388.7 0L317.3 0L398.7 112Z" fill="#ae0225" stroke="#ae0225"></path><path d="M675 160L571.6 74L595.6 177Z" fill="#d07f00" stroke="#d07f00"></path><path d="M388.7 0L398.7 112L486.1 87Z" fill="#ae0225" stroke="#ae0225"></path><path d="M216.9 77L206.9 0L122.4 111Z" fill="#cfba16" stroke="#cfba16"></path><path d="M509.1 0L388.7 0L486.1 87Z" fill="#cacd2b" stroke="#cacd2b"></path><path d="M99.4 733L198.9 744L213.9 647Z" fill="#cacd2b" stroke="#cacd2b"></path><path d="M297.3 744L313.3 797L357.7 748Z" fill="#cfba16" stroke="#cfba16"></path><path d="M506.1 827L587.6 690L488.1 702Z" fill="#d1a602" stroke="#d1a602"></path><path d="M488.1 702L587.6 690L569.6 608Z" fill="#cd6b07" stroke="#cd6b07"></path><path d="M675 260L675 160L603.6 243Z" fill="#c85711" stroke="#c85711"></path><path d="M317.3 0L206.9 0L273.3 89Z" fill="#c14219" stroke="#c14219"></path><path d="M122.4 111L0 168L120.4 152Z" fill="#cfba16" stroke="#cfba16"></path><path d="M0 59L0 168L122.4 111Z" fill="#cfba16" stroke="#cfba16"></path><path d="M587.6 690L675 622L569.6 608Z" fill="#cd6b07" stroke="#cd6b07"></path><path d="M0 537L0 606L100.4 531Z" fill="#ae0225" stroke="#ae0225"></path><path d="M89.4 648L99.4 733L213.9 647Z" fill="#c14219" stroke="#c14219"></path><path d="M561.6 0L509.1 0L571.6 74Z" fill="#d07f00" stroke="#d07f00"></path><path d="M571.6 74L509.1 0L486.1 87Z" fill="#b8291f" stroke="#b8291f"></path><path d="M198.9 744L313.3 797L297.3 744Z" fill="#d07f00" stroke="#d07f00"></path><path d="M357.7 748L362.7 799L488.1 702Z" fill="#c14219" stroke="#c14219"></path><path d="M313.3 797L362.7 799L357.7 748Z" fill="#ae0225" stroke="#ae0225"></path><path d="M0 743L99.4 733L89.4 648Z" fill="#c14219" stroke="#c14219"></path><path d="M198.9 744L171.9 836L313.3 797Z" fill="#c3e041" stroke="#c3e041"></path><path d="M675 57L561.6 0L571.6 74Z" fill="#cfba16" stroke="#cfba16"></path><path d="M675 160L675 57L571.6 74Z" fill="#b8291f" stroke="#b8291f"></path><path d="M206.9 0L83.4 0L122.4 111Z" fill="#ae0225" stroke="#ae0225"></path><path d="M83.4 0L0 59L122.4 111Z" fill="#cfba16" stroke="#cfba16"></path><path d="M362.7 799L506.1 827L488.1 702Z" fill="#d29300" stroke="#d29300"></path><path d="M587.6 690L675 723L675 622Z" fill="#c14219" stroke="#c14219"></path><path d="M477.1 900L506.1 827L362.7 799Z" fill="#cfba16" stroke="#cfba16"></path><path d="M599.6 818L675 723L587.6 690Z" fill="#d1a602" stroke="#d1a602"></path><path d="M124.4 842L171.9 836L99.4 733Z" fill="#cfba16" stroke="#cfba16"></path><path d="M99.4 733L171.9 836L198.9 744Z" fill="#cfba16" stroke="#cfba16"></path><path d="M313.3 797L374.7 900L362.7 799Z" fill="#c3e041" stroke="#c3e041"></path><path d="M0 606L0 743L89.4 648Z" fill="#c3e041" stroke="#c3e041"></path><path d="M675 57L675 0L561.6 0Z" fill="#cd6b07" stroke="#cd6b07"></path><path d="M506.1 827L599.6 818L587.6 690Z" fill="#c3e041" stroke="#c3e041"></path><path d="M0 834L124.4 842L99.4 733Z" fill="#c85711" stroke="#c85711"></path><path d="M273.3 900L374.7 900L313.3 797Z" fill="#b8291f" stroke="#b8291f"></path><path d="M83.4 0L0 0L0 59Z" fill="#b8291f" stroke="#b8291f"></path><path d="M273.3 900L313.3 797L171.9 836Z" fill="#c85711" stroke="#c85711"></path><path d="M506.1 827L573.6 900L599.6 818Z" fill="#ae0225" stroke="#ae0225"></path><path d="M210.9 900L273.3 900L171.9 836Z" fill="#cfba16" stroke="#cfba16"></path><path d="M374.7 900L477.1 900L362.7 799Z" fill="#d1a602" stroke="#d1a602"></path><path d="M108.4 900L210.9 900L171.9 836Z" fill="#d1a602" stroke="#d1a602"></path><path d="M675 900L675 835L599.6 818Z" fill="#b8291f" stroke="#b8291f"></path><path d="M599.6 818L675 835L675 723Z" fill="#cfba16" stroke="#cfba16"></path><path d="M477.1 900L573.6 900L506.1 827Z" fill="#cacd2b" stroke="#cacd2b"></path><path d="M0 743L0 834L99.4 733Z" fill="#c85711" stroke="#c85711"></path><path d="M124.4 842L108.4 900L171.9 836Z" fill="#c85711" stroke="#c85711"></path><path d="M0 834L108.4 900L124.4 842Z" fill="#b8291f" stroke="#b8291f"></path><path d="M573.6 900L675 900L599.6 818Z" fill="#d1a602" stroke="#d1a602"></path><path d="M0 834L0 900L108.4 900Z" fill="#d07f00" stroke="#d07f00"></path></g></svg>